<svg width="38" height="36" viewBox="0 0 38 36" fill="none" xmlns="http://www.w3.org/2000/svg">
<rect width="38" height="36" rx="5" fill="#E5F1FA"/>
<path fill-rule="evenodd" clip-rule="evenodd" d="M12.7917 7.47826C12.7917 7.21412 13.0062 7 13.2708 7H14.2292C14.4938 7 14.7083 7.21412 14.7083 7.47826V9.86957H24.2917V7.47826C24.2917 7.21412 24.5062 7 24.7708 7H25.7292C25.9938 7 26.2083 7.21412 26.2083 7.47826V9.86957H29.0833C30.1419 9.86957 31 10.7261 31 11.7826V25C31 23.4019 30.2503 21.9789 29.0833 21.0636V16.5652H9.91667V26.1304C9.91667 26.6587 10.3457 27.087 10.875 27.087H21.455C21.8043 27.8464 22.3383 28.5032 22.9995 29H9.91667C8.85812 29 8 28.1435 8 27.087V11.7826C8 10.7261 8.85812 9.86957 9.91667 9.86957H12.7917V7.47826ZM14.7083 11.7826H24.2917V12.7391C24.2917 13.0033 24.5062 13.2174 24.7708 13.2174H25.7292C25.9938 13.2174 26.2083 13.0033 26.2083 12.7391V11.7826H28.125C28.6543 11.7826 29.0833 12.2109 29.0833 12.7391V14.6522H9.91667V12.7391C9.91667 12.2109 10.3457 11.7826 10.875 11.7826H12.7917V12.7391C12.7917 13.0033 13.0062 13.2174 13.2708 13.2174H14.2292C14.4938 13.2174 14.7083 13.0033 14.7083 12.7391V11.7826Z" fill="#1580EB"/>
<path d="M29.0005 29C30.2147 28.0878 31 26.6356 31 25V27.087C31 28.1435 30.1419 29 29.0833 29H29.0005Z" fill="#1580EB"/>
<path fill-rule="evenodd" clip-rule="evenodd" d="M26 20.75C23.6528 20.75 21.75 22.6528 21.75 25C21.75 27.3472 23.6528 29.25 26 29.25C28.3472 29.25 30.25 27.3472 30.25 25C30.25 22.6528 28.3472 20.75 26 20.75ZM20.25 25C20.25 21.8244 22.8244 19.25 26 19.25C29.1756 19.25 31.75 21.8244 31.75 25C31.75 28.1756 29.1756 30.75 26 30.75C22.8244 30.75 20.25 28.1756 20.25 25Z" fill="#1580EB"/>
<path d="M23.5007 24.3788C23.6959 24.1836 24.0125 24.1836 24.2078 24.3788L25.6216 25.7926C25.8168 25.9879 25.8168 26.3045 25.6216 26.4997C25.4263 26.695 25.1097 26.695 24.9145 26.4997L23.5007 25.0859C23.3054 24.8907 23.3054 24.5741 23.5007 24.3788Z" fill="#1580EB"/>
<path d="M28.3253 23.0976C28.13 22.9023 27.8135 22.9023 27.6182 23.0976L24.9228 25.793C24.7275 25.9883 24.7275 26.3049 24.9228 26.5001C25.118 26.6954 25.4346 26.6954 25.6299 26.5001L28.3253 23.8047C28.5206 23.6094 28.5206 23.2929 28.3253 23.0976Z" fill="#1580EB"/>
</svg>
