<svg width="38" height="36" viewBox="0 0 38 36" fill="none" xmlns="http://www.w3.org/2000/svg">
<rect width="38" height="36" rx="5" fill="#E5F1FA"/>
<path d="M31.3025 17.5628C31.1865 17.5628 31.0752 17.6089 30.9931 17.691C30.9111 17.773 30.865 17.8843 30.865 18.0003C30.8714 20.8968 29.815 23.695 27.896 25.8646C25.9769 28.0341 23.3286 29.4242 20.453 29.7714C17.5773 30.1186 14.6743 29.3987 12.294 27.7482C9.91378 26.0977 8.22176 23.6313 7.53869 20.8165C6.85562 18.0017 7.22896 15.0341 8.58796 12.4762C9.94696 9.91831 12.1972 7.94788 14.9121 6.9384C17.627 5.92892 20.6179 5.95054 23.3179 6.99917C26.0179 8.0478 28.2394 10.0506 29.5612 12.6278L28.31 12.2953C28.194 12.2652 28.0707 12.2823 27.9673 12.343C27.8639 12.4038 27.7889 12.5031 27.7587 12.6191C27.7286 12.7351 27.7457 12.8584 27.8065 12.9618C27.8672 13.0651 27.9665 13.1402 28.0825 13.1703L30.3225 13.7653H30.4362C30.5133 13.765 30.5889 13.7438 30.655 13.7041C30.7538 13.6463 30.8261 13.552 30.8562 13.4416L31.4425 11.2628C31.4727 11.1468 31.4555 11.0235 31.3948 10.9202C31.3341 10.8168 31.2348 10.7418 31.1187 10.7116C31.0027 10.6814 30.8794 10.6986 30.7761 10.7593C30.6727 10.82 30.5977 10.9193 30.5675 11.0353L30.2962 12.1291C28.8601 9.38302 26.4679 7.25803 23.5717 6.15559C20.6755 5.05315 17.4758 5.0496 14.5771 6.14561C11.6785 7.24163 9.28157 9.3613 7.83931 12.1042C6.39705 14.847 6.00928 18.0232 6.74927 21.0325C7.48926 24.0418 9.30577 26.6758 11.8556 28.437C14.4054 30.1983 17.512 30.9646 20.5884 30.5914C23.6647 30.2181 26.4979 28.7311 28.5526 26.4112C30.6072 24.0913 31.7411 21.0993 31.74 18.0003C31.74 17.8843 31.6939 17.773 31.6119 17.691C31.5298 17.6089 31.4185 17.5628 31.3025 17.5628Z" fill="#1580EB"/>
<path d="M17.5213 16.8974C17.6269 16.7354 17.7205 16.5657 17.8013 16.3899C17.8661 16.2467 17.916 16.0972 17.95 15.9437C17.9635 15.8128 17.9635 15.6808 17.95 15.5499C17.954 15.2501 17.8974 14.9525 17.7838 14.6749C17.6756 14.4144 17.5147 14.1791 17.3113 13.9837C17.1017 13.7854 16.8548 13.6308 16.585 13.5287C16.2829 13.4157 15.9626 13.3593 15.64 13.3624C15.3402 13.3594 15.0428 13.4159 14.765 13.5287C14.4983 13.6358 14.2547 13.7932 14.0475 13.9924C13.8372 14.1944 13.6679 14.435 13.5488 14.7012C13.4263 14.9769 13.3609 15.2745 13.3563 15.5762H14.275C14.2785 15.3833 14.3201 15.1929 14.3975 15.0162C14.4645 14.8607 14.5628 14.7208 14.6863 14.6049C14.8083 14.4958 14.9512 14.4125 15.1063 14.3599C15.4458 14.2391 15.8167 14.2391 16.1563 14.3599C16.3148 14.419 16.4603 14.5081 16.585 14.6224C16.7032 14.7341 16.7983 14.8679 16.865 15.0162C16.9342 15.1672 16.97 15.3313 16.97 15.4974C16.9692 15.6589 16.9396 15.8189 16.8825 15.9699C16.8245 16.1228 16.7512 16.2693 16.6638 16.4074C16.5784 16.5469 16.4849 16.6813 16.3838 16.8099L16.095 17.1599L13.4263 20.5199V21.2724H17.985V20.3974H14.625L17.0488 17.5099C17.2203 17.317 17.3782 17.1124 17.5213 16.8974Z" fill="#1580EB"/>
<path d="M24.46 19.0242V18.1404H23.305V16.7929L22.2987 16.8629V18.1404H20.3125L22.9375 13.5029H21.8437L19.0875 18.2192L19.0787 19.0242H22.2987V20.3892H21.5462V21.2729H24.075V20.3892H23.305V19.0242H24.46Z" fill="#1580EB"/>
</svg>
