<svg width="38" height="36" viewBox="0 0 38 36" fill="none" xmlns="http://www.w3.org/2000/svg">
<rect width="38" height="36" rx="5" fill="#E5F1FA"/>
<path d="M30.1562 10.9562C30.1562 9.95 29.4562 9.20625 28.45 9.11875C27.05 8.9875 21.4937 7.28125 20.225 6.40625C19.875 6.1875 19.4375 5.96875 19 5.96875C18.5625 5.96875 18.1688 6.1875 17.775 6.45C16.5063 7.28125 10.95 9.03125 9.55 9.1625C8.54375 9.25 7.8875 9.95 7.84375 11C7.84375 11.525 7.93125 14.3687 8.01875 15.2875C8.15 16.8625 8.5 18.35 8.98125 19.8375C9.76875 22.2 10.9938 24.3 12.7438 26.05C14.275 27.6688 16.1125 28.8937 18.125 29.8125C18.3875 29.9438 19 30.0312 19 30.0312C19 30.0312 19.5688 29.9438 19.875 29.8125C21.8875 28.8937 23.725 27.625 25.2563 26.05C26.9625 24.2563 28.2313 22.1562 29.0188 19.8375C29.5 18.35 29.85 16.8625 29.9812 15.2875C30.0687 14.3687 30.1562 11.4812 30.1562 10.9562ZM28.0125 17.9125C27.4 20.3625 26.3063 22.5938 24.6438 24.5188C23.1563 26.225 21.3188 27.4938 19.3063 28.4563C19.2188 28.5 18.8687 28.5 18.7812 28.4563C16.725 27.4938 14.9312 26.225 13.4437 24.5188C11.7812 22.5938 10.6875 20.3625 10.075 17.9125C9.59375 16.075 9.41875 11.525 9.41875 11.1312C9.41875 10.65 9.4625 10.65 9.94375 10.5625C10.775 10.475 16.8125 8.94375 18.7375 7.63125C18.9125 7.5 19.3062 7.5 19.4375 7.63125C21.3625 8.94375 27.4 10.475 28.2312 10.5625C28.7125 10.6062 28.7563 10.65 28.7563 11.1312C28.6687 11.525 28.45 16.075 28.0125 17.9125Z" fill="#1580EB"/>
<path d="M24.775 19.3998C24.775 19.4873 24.6875 19.5748 24.6 19.5748H20.7937C20.7062 19.5748 20.6188 19.6623 20.6188 19.7498V23.5561C20.6188 23.6436 20.5312 23.7311 20.4437 23.7311H17.6437C17.5562 23.7311 17.4688 23.6436 17.4688 23.5561V19.7498C17.4688 19.6623 17.3813 19.5748 17.2938 19.5748H13.4875C13.4 19.5748 13.3125 19.4873 13.3125 19.3998V16.5998C13.3125 16.5123 13.4 16.4248 13.4875 16.4248H17.2938C17.3813 16.4248 17.4688 16.3373 17.4688 16.2498V12.4436C17.4688 12.3561 17.5562 12.2686 17.6437 12.2686H20.4437C20.5312 12.2686 20.6188 12.3561 20.6188 12.4436V16.2498C20.6188 16.3373 20.7062 16.4248 20.7937 16.4248H24.6C24.6875 16.4248 24.775 16.5123 24.775 16.5998V19.3998Z" fill="#1580EB"/>
</svg>
