<svg width="26" height="26" viewBox="0 0 26 26" fill="none" xmlns="http://www.w3.org/2000/svg">
<path d="M13 2.16675C15.9434 2.16675 16.3107 2.17758 17.4655 2.23175C18.6193 2.28591 19.4047 2.46683 20.0959 2.7355C20.8109 3.01066 21.4132 3.38333 22.0155 3.98458C22.5664 4.52614 22.9926 5.18122 23.2646 5.90425C23.5322 6.59433 23.7142 7.38083 23.7684 8.53458C23.8193 9.68941 23.8334 10.0567 23.8334 13.0001C23.8334 15.9435 23.8225 16.3107 23.7684 17.4656C23.7142 18.6193 23.5322 19.4047 23.2646 20.0959C22.9934 20.8193 22.5671 21.4746 22.0155 22.0156C21.4738 22.5663 20.8188 22.9925 20.0959 23.2647C19.4058 23.5322 18.6193 23.7142 17.4655 23.7684C16.3107 23.8193 15.9434 23.8334 13 23.8334C10.0566 23.8334 9.68935 23.8226 8.53452 23.7684C7.38077 23.7142 6.59535 23.5322 5.90419 23.2647C5.18087 22.9933 4.52567 22.5669 3.98452 22.0156C3.43354 21.4741 3.00728 20.819 2.73544 20.0959C2.46677 19.4058 2.28585 18.6193 2.23169 17.4656C2.18077 16.3107 2.16669 15.9435 2.16669 13.0001C2.16669 10.0567 2.17752 9.68941 2.23169 8.53458C2.28585 7.37975 2.46677 6.59541 2.73544 5.90425C3.00653 5.18078 3.43289 4.52551 3.98452 3.98458C4.52583 3.43342 5.18098 3.00712 5.90419 2.7355C6.59535 2.46683 7.37969 2.28591 8.53452 2.23175C9.68935 2.18083 10.0566 2.16675 13 2.16675ZM13 7.58341C11.5634 7.58341 10.1857 8.1541 9.16986 9.16992C8.15404 10.1857 7.58335 11.5635 7.58335 13.0001C7.58335 14.4367 8.15404 15.8144 9.16986 16.8302C10.1857 17.8461 11.5634 18.4167 13 18.4167C14.4366 18.4167 15.8144 17.8461 16.8302 16.8302C17.846 15.8144 18.4167 14.4367 18.4167 13.0001C18.4167 11.5635 17.846 10.1857 16.8302 9.16992C15.8144 8.1541 14.4366 7.58341 13 7.58341ZM20.0417 7.31258C20.0417 6.95343 19.899 6.609 19.6451 6.35504C19.3911 6.10109 19.0467 5.95841 18.6875 5.95841C18.3284 5.95841 17.9839 6.10109 17.73 6.35504C17.476 6.609 17.3334 6.95343 17.3334 7.31258C17.3334 7.67173 17.476 8.01617 17.73 8.27012C17.9839 8.52408 18.3284 8.66675 18.6875 8.66675C19.0467 8.66675 19.3911 8.52408 19.6451 8.27012C19.899 8.01617 20.0417 7.67173 20.0417 7.31258ZM13 9.75008C13.862 9.75008 14.6886 10.0925 15.2981 10.702C15.9076 11.3115 16.25 12.1381 16.25 13.0001C16.25 13.862 15.9076 14.6887 15.2981 15.2982C14.6886 15.9077 13.862 16.2501 13 16.2501C12.1381 16.2501 11.3114 15.9077 10.7019 15.2982C10.0924 14.6887 9.75002 13.862 9.75002 13.0001C9.75002 12.1381 10.0924 11.3115 10.7019 10.702C11.3114 10.0925 12.1381 9.75008 13 9.75008Z" fill="white" fill-opacity="0.61"/>
</svg>
