<svg width="28" height="28" viewBox="0 0 28 28" fill="none" xmlns="http://www.w3.org/2000/svg">
<path d="M26.5682 2.31693L25.7149 1.4637C25.6921 1.44084 25.665 1.42271 25.6351 1.41034C25.6052 1.39797 25.5732 1.3916 25.5409 1.3916C25.5086 1.3916 25.4766 1.39797 25.4467 1.41034C25.4168 1.42271 25.3897 1.44084 25.3669 1.4637L24.5136 2.31693C24.4792 2.35135 24.4558 2.39521 24.4463 2.44295C24.4368 2.4907 24.4416 2.54019 24.4603 2.58516C24.4789 2.63014 24.5104 2.66858 24.5509 2.69563C24.5914 2.72268 24.639 2.73711 24.6877 2.73712H25.2128V5.2134C25.2128 5.30043 25.2474 5.38389 25.3089 5.44542C25.3704 5.50696 25.4539 5.54153 25.5409 5.54153C25.6279 5.54153 25.7114 5.50696 25.7729 5.44542C25.8345 5.38389 25.869 5.30043 25.869 5.2134V2.73712H26.3941C26.4428 2.73712 26.4904 2.72268 26.5309 2.69563C26.5714 2.66859 26.6029 2.63015 26.6215 2.58517C26.6402 2.54019 26.6451 2.4907 26.6356 2.44296C26.6261 2.39521 26.6026 2.35135 26.5682 2.31693Z" fill="#1580EB"/>
<path d="M11.314 20.0667C11.225 19.6792 11.0188 19.3286 10.7233 19.0626L8.40857 16.9725C8.35391 16.9225 8.28948 16.8844 8.21934 16.8605C8.1492 16.8366 8.07487 16.8276 8.00105 16.8339C7.92723 16.8402 7.85552 16.8617 7.79045 16.8972C7.72537 16.9326 7.66835 16.9811 7.62297 17.0397C7.28259 17.4757 7.17866 17.9593 7.33031 18.4012C7.42513 18.6775 7.6098 18.9665 7.80805 19.2238L6.10788 18.7161C6.00923 18.6865 5.91889 18.6342 5.84407 18.5634C5.76926 18.4926 5.71205 18.4052 5.67703 18.3084L5.44767 17.6671C5.32735 17.3337 5.1073 17.0455 4.81741 16.8416C4.52753 16.6377 4.18188 16.5279 3.82745 16.5273H2.24509C2.12635 16.5273 2.00918 16.5546 1.90259 16.6069C1.796 16.6592 1.70283 16.7353 1.63022 16.8293C1.55761 16.9232 1.5075 17.0326 1.48374 17.1489C1.45997 17.2653 1.46319 17.3855 1.49314 17.5004L2.16183 20.1273C2.3073 20.715 2.46251 21.1897 3.01496 21.5056L7.01262 23.7915C7.15756 23.8748 7.27836 23.9944 7.36316 24.1385C7.44797 24.2825 7.49386 24.4462 7.49634 24.6134L7.5106 25.7482C7.51063 25.7502 7.51065 25.7522 7.51073 25.7542C7.51063 25.7574 7.51057 25.7607 7.51057 25.7639C7.51057 26.6583 8.63356 27.359 10.0672 27.359C11.1997 27.359 12.1804 26.9134 12.5076 26.2504C12.6122 26.0335 12.6388 25.7871 12.5829 25.5529L11.314 20.0667ZM11.9682 25.9841C11.7786 26.3684 11.0647 26.7574 10.0672 26.7574C9.0257 26.7574 8.11214 26.2931 8.11214 25.7639C8.11214 25.7607 8.11209 25.7575 8.11198 25.7542C8.11214 25.7497 8.11217 25.7452 8.11211 25.7407L8.09786 24.6058C8.09383 24.3339 8.0192 24.0678 7.8813 23.8335C7.74339 23.5992 7.54695 23.4048 7.31124 23.2693L3.31359 20.9834C2.99254 20.7998 2.88324 20.538 2.74532 19.9808L2.0754 17.3493C2.06854 17.3233 2.06773 17.2961 2.07304 17.2697C2.07835 17.2434 2.08964 17.2186 2.10603 17.1973C2.12243 17.1761 2.14349 17.1588 2.1676 17.1469C2.19171 17.1351 2.21823 17.1289 2.2451 17.1289H2.42324C2.42509 17.1467 2.42853 17.1643 2.43351 17.1815L3.31275 20.168C3.34385 20.2711 3.3958 20.3667 3.46539 20.4488C3.53498 20.531 3.62071 20.598 3.71727 20.6456L4.49061 21.0256C4.56221 21.0608 4.64486 21.0661 4.72036 21.0404C4.79587 21.0146 4.85806 20.9599 4.89324 20.8883C4.92842 20.8167 4.93372 20.7341 4.90797 20.6586C4.88223 20.5831 4.82754 20.5209 4.75594 20.4857L3.98259 20.1057C3.96044 20.0948 3.94073 20.0795 3.9247 20.0608C3.90867 20.042 3.89665 20.0202 3.88937 19.9966L3.0451 17.1289H3.52989L4.13792 19.4107C4.16784 19.5194 4.2209 19.6203 4.29347 19.7066C4.36603 19.7929 4.45638 19.8624 4.55833 19.9105L5.35707 20.2877C5.42921 20.3218 5.51193 20.3258 5.58702 20.2989C5.66212 20.2719 5.72344 20.2163 5.75751 20.1441C5.79157 20.072 5.79558 19.9893 5.76866 19.9142C5.74174 19.8391 5.68609 19.7778 5.61395 19.7437L4.81519 19.3665C4.79194 19.3556 4.77128 19.3399 4.75461 19.3204C4.73793 19.3009 4.72563 19.278 4.71852 19.2533L4.16653 17.1818C4.33046 17.2341 4.48018 17.3233 4.60413 17.4427C4.72808 17.562 4.82293 17.7082 4.88136 17.8701L5.11074 18.5113C5.17775 18.6969 5.28727 18.8642 5.43053 18.9999C5.5738 19.1355 5.74683 19.2358 5.93578 19.2926L8.68062 20.1122C8.74599 20.1317 8.81607 20.1285 8.87934 20.1029C8.94261 20.0774 8.99531 20.0311 9.0288 19.9716C9.06228 19.9122 9.07456 19.8431 9.06361 19.7758C9.05267 19.7084 9.01915 19.6468 8.96856 19.601C8.73028 19.3852 8.07369 18.714 7.89929 18.2059C7.80217 17.9229 7.92162 17.6549 8.0562 17.4649L10.3201 19.5091C10.5241 19.6927 10.6665 19.9347 10.728 20.2022L11.9968 25.6885C12.0215 25.7874 12.0114 25.8918 11.9682 25.9841Z" fill="#1580EB"/>
<path d="M23.6437 16.5274H22.0613C21.7068 16.528 21.3611 16.6377 21.0712 16.8417C20.7813 17.0457 20.5613 17.334 20.441 17.6675L20.2118 18.3081C20.1768 18.405 20.1196 18.4924 20.0448 18.5633C19.9699 18.6341 19.8795 18.6865 19.7808 18.7162L18.0807 19.2238C18.2789 18.9665 18.4636 18.6775 18.5584 18.4012C18.7101 17.9593 18.6061 17.4758 18.2657 17.0396C18.2203 16.9811 18.1633 16.9326 18.0982 16.8972C18.0332 16.8617 17.9615 16.8402 17.8876 16.8339C17.8138 16.8276 17.7395 16.8367 17.6694 16.8605C17.5992 16.8844 17.5348 16.9225 17.4802 16.9726L15.1654 19.0627C14.87 19.3287 14.6637 19.6792 14.5747 20.0667L13.3058 25.5529C13.2499 25.7871 13.2765 26.0334 13.3811 26.2503C13.7083 26.9134 14.689 27.359 15.8216 27.359C17.2552 27.359 18.3782 26.6583 18.3782 25.7639C18.3782 25.7607 18.3781 25.7574 18.378 25.7542C18.3781 25.7522 18.3781 25.7502 18.3781 25.7482L18.3924 24.6134C18.3949 24.4462 18.4408 24.2825 18.5256 24.1385C18.6104 23.9944 18.7311 23.8748 18.8761 23.7915L22.8737 21.5056C23.4262 21.1897 23.5814 20.715 23.7264 20.1292L24.3949 17.5032C24.4253 17.3881 24.4289 17.2677 24.4054 17.151C24.3819 17.0344 24.332 16.9247 24.2594 16.8304C24.1868 16.7361 24.0935 16.6598 23.9868 16.6072C23.88 16.5547 23.7626 16.5273 23.6436 16.5273L23.6437 16.5274ZM23.8127 17.352L23.143 19.9828C23.0055 20.538 22.8962 20.7998 22.5752 20.9834L18.5775 23.2693C18.3418 23.4048 18.1454 23.5992 18.0075 23.8335C17.8696 24.0678 17.7949 24.3339 17.7909 24.6058L17.7767 25.7407C17.7766 25.7452 17.7767 25.7497 17.7768 25.7542C17.7767 25.7575 17.7766 25.7607 17.7766 25.7639C17.7766 26.2931 16.8631 26.7574 15.8216 26.7574C14.8241 26.7574 14.1102 26.3684 13.9206 25.9841C13.8774 25.8918 13.8672 25.7874 13.8919 25.6885L15.1608 20.2022C15.2223 19.9348 15.3647 19.6927 15.5686 19.5091L17.8326 17.4649C17.9672 17.655 18.0866 17.923 17.9895 18.206C17.8156 18.7125 17.1586 19.3848 16.9202 19.601C16.8696 19.6468 16.8361 19.7084 16.8252 19.7758C16.8142 19.8431 16.8265 19.9122 16.86 19.9717C16.8935 20.0311 16.9462 20.0774 17.0094 20.103C17.0727 20.1285 17.1428 20.1318 17.2082 20.1122L19.953 19.2926C20.142 19.2358 20.315 19.1355 20.4583 18.9998C20.6016 18.8641 20.7112 18.6967 20.7782 18.511L21.0073 17.8704C21.0657 17.7085 21.1606 17.5622 21.2845 17.4428C21.4085 17.3235 21.5583 17.2342 21.7222 17.1819L21.1709 19.2509C21.164 19.276 21.1517 19.2994 21.1349 19.3193C21.1181 19.3393 21.0972 19.3554 21.0736 19.3665L20.2748 19.7437C20.2027 19.7778 20.147 19.8391 20.1201 19.9142C20.0932 19.9893 20.0972 20.072 20.1313 20.1442C20.1653 20.2163 20.2267 20.272 20.3018 20.2989C20.3769 20.3258 20.4596 20.3218 20.5317 20.2877L21.3304 19.9105C21.4327 19.8622 21.5233 19.7923 21.596 19.7055C21.6687 19.6188 21.7218 19.5174 21.7515 19.4082L22.3589 17.1289H22.8437L21.9998 19.9951C21.9927 20.019 21.9806 20.0411 21.9645 20.0602C21.9484 20.0792 21.9286 20.0947 21.9062 20.1057L21.0778 20.5128C21.0423 20.5302 21.0106 20.5545 20.9846 20.5841C20.9585 20.6138 20.9385 20.6483 20.9257 20.6857C20.913 20.7231 20.9077 20.7626 20.9103 20.802C20.9128 20.8415 20.923 20.88 20.9405 20.9154C20.9579 20.9509 20.9821 20.9826 21.0118 21.0087C21.0414 21.0347 21.076 21.0547 21.1133 21.0675C21.1507 21.0802 21.1903 21.0855 21.2297 21.083C21.2691 21.0804 21.3076 21.0702 21.3431 21.0528L22.1715 20.6456C22.2683 20.5979 22.3542 20.5307 22.4238 20.4482C22.4935 20.3658 22.5455 20.2699 22.5765 20.1665L23.4553 17.1815C23.4603 17.1643 23.4637 17.1467 23.4656 17.1289H23.6437C23.6708 17.1289 23.6976 17.1352 23.7219 17.1473C23.7461 17.1593 23.7673 17.1769 23.7837 17.1985C23.8 17.2201 23.8112 17.2452 23.8162 17.2719C23.8212 17.2985 23.82 17.326 23.8127 17.3521L23.8127 17.352Z" fill="#1580EB"/>
<path d="M20.1845 6.39623C20.508 6.39623 20.8242 6.30032 21.0931 6.12063C21.3621 5.94094 21.5717 5.68553 21.6954 5.3867C21.8192 5.08787 21.8516 4.75905 21.7885 4.44182C21.7254 4.12459 21.5697 3.83319 21.3409 3.60448C21.1122 3.37577 20.8208 3.22001 20.5036 3.15691C20.1864 3.09381 19.8575 3.1262 19.5587 3.24998C19.2599 3.37376 19.0045 3.58337 18.8248 3.85231C18.6451 4.12125 18.5492 4.43744 18.5492 4.76089C18.5497 5.19445 18.7221 5.61012 19.0287 5.9167C19.3353 6.22328 19.751 6.39573 20.1845 6.39623ZM20.1845 3.78174C20.3782 3.78174 20.5675 3.83916 20.7285 3.94674C20.8895 4.05432 21.015 4.20724 21.0891 4.38615C21.1633 4.56506 21.1827 4.76192 21.1449 4.95186C21.1071 5.14179 21.0139 5.31625 20.8769 5.45319C20.74 5.59012 20.5655 5.68338 20.3756 5.72116C20.1857 5.75895 19.9888 5.73956 19.8099 5.66546C19.631 5.59136 19.4781 5.46587 19.3705 5.30485C19.2629 5.14384 19.2054 4.95454 19.2054 4.76089C19.2057 4.5013 19.309 4.25243 19.4925 4.06887C19.6761 3.8853 19.925 3.78205 20.1845 3.78174Z" fill="#1580EB"/>
<path d="M25.5409 6.14404C25.4539 6.14404 25.3704 6.17861 25.3089 6.24015C25.2473 6.30168 25.2128 6.38514 25.2128 6.47217V7.06491C25.2128 7.15194 25.2473 7.2354 25.3089 7.29693C25.3704 7.35847 25.4539 7.39304 25.5409 7.39304C25.6279 7.39304 25.7114 7.35847 25.7729 7.29693C25.8344 7.2354 25.869 7.15194 25.869 7.06491V6.47217C25.869 6.38514 25.8344 6.30168 25.7729 6.24015C25.7114 6.17861 25.6279 6.14404 25.5409 6.14404Z" fill="#1580EB"/>
<path d="M6.39159 15.5757H19.1507C19.5057 15.5753 19.846 15.4341 20.097 15.1831C20.3481 14.9321 20.4892 14.5917 20.4896 14.2367V11.1522L20.4784 8.89429H20.6195C20.7214 8.89474 20.8204 8.86025 20.9 8.79655C20.9795 8.73286 21.0348 8.64383 21.0567 8.54429L21.2608 7.63378C21.3091 7.61509 21.3571 7.59506 21.405 7.5737L22.1933 8.07323C22.2792 8.12825 22.3813 8.15216 22.4826 8.14097C22.5839 8.12978 22.6784 8.08418 22.7501 8.01176L23.3654 7.39647C23.4377 7.32474 23.4833 7.23036 23.4946 7.12907C23.5058 7.02778 23.4819 6.92571 23.427 6.83988L22.9273 6.0514C22.9486 6.00371 22.9686 5.95566 22.9873 5.90726L23.8979 5.70314C23.9975 5.68128 24.0865 5.62596 24.1502 5.5464C24.2139 5.46685 24.2484 5.36786 24.2479 5.26596V4.39588C24.2483 4.29397 24.2139 4.19498 24.1502 4.11542C24.0865 4.03587 23.9974 3.98055 23.8979 3.9587L22.9873 3.75458C22.9687 3.70625 22.9487 3.6582 22.9273 3.61044L23.4269 2.82197C23.4819 2.73615 23.5058 2.63407 23.4946 2.53276C23.4834 2.43145 23.4377 2.33706 23.3653 2.26533L22.7501 1.65009C22.6784 1.5777 22.584 1.53208 22.4827 1.52086C22.3814 1.50963 22.2793 1.53348 22.1935 1.58841L21.405 2.08813C21.3573 2.06681 21.3092 2.0468 21.2608 2.0281L21.0567 1.11755C21.0348 1.01802 20.9795 0.928995 20.9 0.865311C20.8204 0.801627 20.7214 0.767134 20.6195 0.767582H19.7494C19.6475 0.767135 19.5485 0.801632 19.469 0.865323C19.3894 0.929013 19.3341 1.01805 19.3123 1.11758L19.1082 2.02807C19.0598 2.04677 19.0117 2.06679 18.964 2.08815L18.1754 1.58831C18.0895 1.53343 17.9875 1.50963 17.8862 1.52085C17.785 1.53208 17.6906 1.57767 17.6189 1.65002L17.0036 2.26531C16.9312 2.33704 16.8856 2.43142 16.8744 2.53271C16.8632 2.634 16.8871 2.73607 16.942 2.8219L17.4417 3.61044C17.4204 3.65813 17.4004 3.70618 17.3817 3.75458L16.7819 3.88903C16.6054 3.22489 16.2497 2.62206 15.7537 2.14647C15.0321 1.4407 14.0629 1.04536 13.0536 1.04503H12.9573C12.0054 1.04619 11.0891 1.40702 10.392 2.05524C9.69487 2.70346 9.26847 3.59117 9.19824 4.5405H6.39159C6.03659 4.54089 5.69625 4.6821 5.44523 4.93312C5.19421 5.18414 5.05301 5.52449 5.05261 5.87949V14.2367C5.05301 14.5917 5.19421 14.9321 5.44523 15.1831C5.69625 15.4341 6.03659 15.5753 6.39159 15.5757ZM17.637 4.36986C17.712 4.35318 17.7815 4.31736 17.8386 4.26589C17.8957 4.21442 17.9385 4.14905 17.9629 4.07613C17.9958 3.98001 18.0349 3.88613 18.08 3.79511C18.114 3.72609 18.1297 3.64952 18.1258 3.57269C18.1219 3.49585 18.0983 3.4213 18.0575 3.35612L17.5855 2.61143L17.965 2.23198L18.7099 2.70403C18.7748 2.74537 18.8494 2.76916 18.9264 2.77307C19.0033 2.77699 19.0799 2.76089 19.1487 2.72636C19.2397 2.68129 19.3335 2.64222 19.4296 2.6094C19.5025 2.58502 19.568 2.54218 19.6195 2.48502C19.671 2.42787 19.7068 2.35836 19.7235 2.28325L19.9161 1.42379H20.4528L20.6455 2.2833C20.6621 2.35838 20.698 2.42786 20.7494 2.485C20.8009 2.54213 20.8663 2.58497 20.9392 2.60934C21.0353 2.64217 21.1292 2.68124 21.2202 2.7263C21.2892 2.76031 21.3658 2.77611 21.4426 2.77219C21.5195 2.76827 21.5941 2.74477 21.6593 2.70392L22.404 2.23197L22.7834 2.61142L22.3116 3.356C22.2707 3.42118 22.2471 3.49575 22.2432 3.57261C22.2392 3.64947 22.255 3.72607 22.289 3.7951C22.3341 3.88612 22.3732 3.97997 22.4061 4.07607C22.4305 4.14902 22.4733 4.21442 22.5304 4.26591C22.5876 4.3174 22.6571 4.35323 22.7322 4.36991L23.5916 4.56255V5.09928L22.7324 5.29186C22.6573 5.30845 22.5877 5.34423 22.5306 5.39571C22.4734 5.44719 22.4305 5.51261 22.4061 5.58559C22.3732 5.6818 22.334 5.77576 22.2889 5.86688C22.2544 5.93574 22.2384 6.01237 22.2424 6.08927C22.2463 6.16618 22.2701 6.24075 22.3115 6.30571L22.7834 7.05035L22.404 7.42985L21.6595 6.95806C21.5943 6.91714 21.5197 6.89357 21.4429 6.88961C21.366 6.88565 21.2894 6.90142 21.2204 6.93542C21.1294 6.98047 21.0355 7.01957 20.9394 7.05245C20.8664 7.07682 20.801 7.11967 20.7495 7.17682C20.698 7.23398 20.6622 7.30349 20.6455 7.3786L20.4528 8.23806H19.9161L19.7235 7.37854C19.7068 7.30346 19.671 7.23398 19.6195 7.17684C19.568 7.11971 19.5026 7.07687 19.4297 7.0525C19.3336 7.01963 19.2397 6.98054 19.1487 6.93546C19.0797 6.90143 19.0032 6.88563 18.9263 6.88955C18.8495 6.89347 18.7749 6.917 18.7097 6.95789L17.965 7.42984L17.5855 7.05033L18.0575 6.30565C18.0989 6.24066 18.1227 6.16605 18.1266 6.08911C18.1305 6.01217 18.1145 5.93552 18.0799 5.86665C18.0349 5.77565 17.9958 5.68182 17.9629 5.58574C17.9385 5.51278 17.8957 5.44737 17.8385 5.39588C17.7814 5.34439 17.7119 5.30857 17.6368 5.2919L16.7773 5.09927V4.56255L17.637 4.36986ZM10.9161 4.40367C11.083 3.39297 11.8842 2.73994 12.9573 2.73994H13.0535C14.1266 2.73994 14.9278 3.39299 15.0947 4.40369C15.0974 4.42058 15.0964 4.43784 15.0918 4.4543C15.0872 4.47076 15.0791 4.48603 15.068 4.49904C15.0569 4.51204 15.0431 4.52249 15.0276 4.52965C15.012 4.53681 14.9951 4.54052 14.9781 4.54052H11.0328C11.0157 4.54052 10.9988 4.53681 10.9833 4.52965C10.9677 4.52249 10.9539 4.51204 10.9429 4.49904C10.9318 4.48603 10.9236 4.47076 10.919 4.4543C10.9144 4.43784 10.9134 4.42058 10.9161 4.40369L10.9161 4.40367ZM12.8258 6.47377C13.517 6.47377 14.1927 6.67874 14.7675 7.06277C15.3422 7.4468 15.7902 7.99263 16.0547 8.63124C16.3192 9.26986 16.3884 9.97257 16.2536 10.6505C16.1187 11.3285 15.7859 11.9512 15.2971 12.44C14.8083 12.9287 14.1856 13.2616 13.5076 13.3965C12.8297 13.5313 12.127 13.4621 11.4883 13.1976C10.8497 12.9331 10.3039 12.4851 9.91987 11.9104C9.53585 11.3356 9.33087 10.6599 9.33088 9.96868C9.33088 9.50972 9.42128 9.05526 9.59691 8.63123C9.77255 8.20721 10.03 7.82193 10.3545 7.4974C10.6791 7.17287 11.0643 6.91543 11.4884 6.7398C11.9124 6.56416 12.3669 6.47377 12.8258 6.47377H12.8258Z" fill="#1580EB"/>
<path d="M11.1301 10.8785H11.9158V11.6643C11.916 11.7954 11.9681 11.921 12.0608 12.0137C12.1535 12.1064 12.2792 12.1586 12.4103 12.1587H13.2414C13.3725 12.1586 13.4982 12.1064 13.5909 12.0137C13.6836 11.921 13.7357 11.7954 13.7358 11.6643V10.8785H14.5216C14.6527 10.8784 14.7784 10.8262 14.8711 10.7336C14.9638 10.6409 15.0159 10.5152 15.0161 10.3841V9.55294C15.0159 9.42185 14.9638 9.29618 14.8711 9.20348C14.7784 9.11079 14.6527 9.05866 14.5216 9.05851H13.7359V8.27275C13.7357 8.14166 13.6836 8.01599 13.5909 7.92329C13.4982 7.8306 13.3725 7.77847 13.2414 7.77832H12.4103C12.2792 7.77847 12.1535 7.83061 12.0608 7.9233C11.9681 8.01599 11.916 8.14166 11.9158 8.27275V9.05851H11.1301C10.999 9.05865 10.8733 9.11079 10.7806 9.20348C10.6879 9.29617 10.6358 9.42185 10.6356 9.55294V10.3841C10.6358 10.5152 10.6879 10.6409 10.7806 10.7336C10.8733 10.8262 10.999 10.8784 11.1301 10.8785ZM11.2919 9.71478H12.0776C12.2087 9.71463 12.3344 9.6625 12.4271 9.5698C12.5198 9.47711 12.5719 9.35144 12.5721 9.22035V8.43457H13.0796V9.22033C13.0797 9.35142 13.1319 9.47709 13.2246 9.56978C13.3173 9.66248 13.4429 9.71461 13.574 9.71476H14.3598V10.2223H13.5741C13.443 10.2224 13.3173 10.2745 13.2246 10.3672C13.1319 10.4599 13.0798 10.5856 13.0796 10.7167V11.5025H12.5721V10.7167C12.572 10.5856 12.5198 10.4599 12.4271 10.3672C12.3344 10.2746 12.2088 10.2224 12.0777 10.2223H11.2919L11.2919 9.71478Z" fill="#1580EB"/>
</svg>
