<svg width="24" height="20" viewBox="0 0 24 20" fill="none" xmlns="http://www.w3.org/2000/svg">
<path d="M23.2316 2.90895C22.4011 3.27813 21.5072 3.52716 20.5694 3.6386C21.5269 3.06534 22.2612 2.15729 22.6074 1.07405C21.7118 1.60558 20.7202 1.99127 19.6641 2.19948C18.8188 1.29877 17.6141 0.735596 16.2809 0.735596C13.7214 0.735596 11.6462 2.81081 11.6462 5.37077C11.6462 5.73353 11.687 6.08712 11.7663 6.42695C7.91401 6.23342 4.49828 4.38843 2.2121 1.58402C1.81311 2.26827 1.58472 3.06442 1.58472 3.91468C1.58472 5.52257 2.40288 6.94151 3.64664 7.77251C2.88718 7.74821 2.1722 7.53954 1.54712 7.19237C1.54666 7.21163 1.54666 7.23135 1.54666 7.25107C1.54666 9.49643 3.14446 11.3694 5.26507 11.7959C4.87617 11.9014 4.46663 11.9583 4.04379 11.9583C3.74478 11.9583 3.45448 11.9294 3.17152 11.8748C3.76175 13.7161 5.47328 15.0566 7.50126 15.0938C5.91492 16.3371 3.91676 17.0782 1.74478 17.0782C1.37101 17.0782 1.00183 17.0562 0.639069 17.0131C2.69089 18.3288 5.12703 19.0956 7.74432 19.0956C16.2703 19.0956 20.9321 12.033 20.9321 5.9078C20.9321 5.70693 20.928 5.50652 20.9193 5.30748C21.8246 4.65534 22.6106 3.83855 23.2316 2.90895Z" fill="white" fill-opacity="0.61"/>
</svg>
