<svg width="38" height="36" viewBox="0 0 38 36" fill="none" xmlns="http://www.w3.org/2000/svg">
<rect width="38" height="36" rx="5" fill="#E5F1FA"/>
<path d="M19.9375 11.4375H20.62C20.7494 11.8003 21.0931 12.0625 21.5 12.0625H24.3125V10.1875H23.4134C22.9825 10.1875 22.6084 9.89531 22.5041 9.4775L22.3691 8.9375H21.5C21.0931 8.9375 20.7494 9.19969 20.62 9.5625H19.9375V8.3125H18.0625V9.5625H17.38C17.2506 9.19969 16.9069 8.9375 16.5 8.9375H15.6309L15.4963 9.4775C15.3916 9.89531 15.0175 10.1875 14.5866 10.1875H13.6875V12.0625H16.5C16.9069 12.0625 17.2506 11.8003 17.38 11.4375H18.0625V13.3125H17.38C17.2506 12.9497 16.9069 12.6875 16.5 12.6875H15.6309L15.4963 13.2275C15.3916 13.6453 15.0175 13.9375 14.5866 13.9375H13.6875V15.8125H16.5C16.9069 15.8125 17.2506 15.5503 17.38 15.1875H18.0625V17.0625H17.38C17.2506 16.6997 16.9069 16.4375 16.5 16.4375H15.6309L15.4963 16.9775C15.3916 17.3953 15.0175 17.6875 14.5866 17.6875H13.6875V19.5625H16.5C16.9069 19.5625 17.2506 19.3003 17.38 18.9375H18.0625V20.8125H17.38C17.2506 20.4497 16.9069 20.1875 16.5 20.1875H15.6309L15.4963 20.7275C15.3916 21.1453 15.0175 21.4375 14.5866 21.4375H13.6875V23.3125H16.5C16.9069 23.3125 17.2506 23.0503 17.38 22.6875H18.0625V24.5625H17.38C17.2506 24.1997 16.9069 23.9375 16.5 23.9375H15.6309L15.4963 24.4775C15.3916 24.8953 15.0175 25.1875 14.5866 25.1875H13.6875V27.0625H16.5C16.9069 27.0625 17.2506 26.8003 17.38 26.4375H18.0625V27.6875H19.9375V26.4375H20.62C20.7494 26.8003 21.0931 27.0625 21.5 27.0625H24.3125V25.1875H23.4134C22.9825 25.1875 22.6084 24.8953 22.5041 24.4775L22.3691 23.9375H21.5C21.0931 23.9375 20.7494 24.1997 20.62 24.5625H19.9375V22.6875H20.62C20.7494 23.0503 21.0931 23.3125 21.5 23.3125H24.3125V21.4375H23.4134C22.9825 21.4375 22.6084 21.1453 22.5041 20.7275L22.3691 20.1875H21.5C21.0931 20.1875 20.7494 20.4497 20.62 20.8125H19.9375V18.9375H20.62C20.7494 19.3003 21.0931 19.5625 21.5 19.5625H24.3125V17.6875H23.4134C22.9825 17.6875 22.6084 17.3953 22.5041 16.9775L22.3691 16.4375H21.5C21.0931 16.4375 20.7494 16.6997 20.62 17.0625H19.9375V15.1875H20.62C20.7494 15.5503 21.0931 15.8125 21.5 15.8125H24.3125V13.9375H23.4134C22.9825 13.9375 22.6084 13.6453 22.5041 13.2275L22.3691 12.6875H21.5C21.0931 12.6875 20.7494 12.9497 20.62 13.3125H19.9375V11.4375ZM17.4375 10.8125V10.1875H20.5625V10.8125H17.4375ZM21.1875 9.875C21.1875 9.70281 21.3275 9.5625 21.5 9.5625H21.8809L21.8978 9.62906C22.0719 10.3259 22.695 10.8125 23.4134 10.8125H23.6875V11.4375H21.5C21.3275 11.4375 21.1875 11.2972 21.1875 11.125V9.875ZM18.6875 8.9375H19.3125V9.5625H18.6875V8.9375ZM16.8125 11.125C16.8125 11.2972 16.6725 11.4375 16.5 11.4375H14.3125V10.8125H14.5866C15.305 10.8125 15.9281 10.3259 16.1028 9.62875L16.1191 9.5625H16.5C16.6725 9.5625 16.8125 9.70281 16.8125 9.875V11.125ZM18.6875 11.4375H19.3125V13.3125H18.6875V11.4375ZM20.5625 13.9375V14.5625H17.4375V13.9375H20.5625ZM16.8125 14.875C16.8125 15.0472 16.6725 15.1875 16.5 15.1875H14.3125V14.5625H14.5866C15.305 14.5625 15.9281 14.0759 16.1028 13.3787L16.1191 13.3125H16.5C16.6725 13.3125 16.8125 13.4528 16.8125 13.625V14.875ZM20.5625 17.6875V18.3125H17.4375V17.6875H20.5625ZM16.8125 18.625C16.8125 18.7972 16.6725 18.9375 16.5 18.9375H14.3125V18.3125H14.5866C15.305 18.3125 15.9281 17.8259 16.1028 17.1287L16.1191 17.0625H16.5C16.6725 17.0625 16.8125 17.2028 16.8125 17.375V18.625ZM20.5625 21.4375V22.0625H17.4375V21.4375H20.5625ZM16.8125 22.375C16.8125 22.5472 16.6725 22.6875 16.5 22.6875H14.3125V22.0625H14.5866C15.305 22.0625 15.9281 21.5759 16.1028 20.8788L16.1191 20.8125H16.5C16.6725 20.8125 16.8125 20.9528 16.8125 21.125V22.375ZM20.5625 25.1875V25.8125H17.4375V25.1875H20.5625ZM16.8125 26.125C16.8125 26.2972 16.6725 26.4375 16.5 26.4375H14.3125V25.8125H14.5866C15.305 25.8125 15.9281 25.3259 16.1028 24.6287L16.1191 24.5625H16.5C16.6725 24.5625 16.8125 24.7028 16.8125 24.875V26.125ZM19.3125 27.0625H18.6875V26.4375H19.3125V27.0625ZM21.1875 24.875C21.1875 24.7028 21.3275 24.5625 21.5 24.5625H21.8809L21.8978 24.6291C22.0719 25.3259 22.695 25.8125 23.4134 25.8125H23.6875V26.4375H21.5C21.3275 26.4375 21.1875 26.2972 21.1875 26.125V24.875ZM19.3125 24.5625H18.6875V22.6875H19.3125V24.5625ZM21.1875 21.125C21.1875 20.9528 21.3275 20.8125 21.5 20.8125H21.8809L21.8978 20.8791C22.0719 21.5759 22.695 22.0625 23.4134 22.0625H23.6875V22.6875H21.5C21.3275 22.6875 21.1875 22.5472 21.1875 22.375V21.125ZM19.3125 20.8125H18.6875V18.9375H19.3125V20.8125ZM21.1875 17.375C21.1875 17.2028 21.3275 17.0625 21.5 17.0625H21.8809L21.8978 17.1291C22.0719 17.8259 22.695 18.3125 23.4134 18.3125H23.6875V18.9375H21.5C21.3275 18.9375 21.1875 18.7972 21.1875 18.625V17.375ZM19.3125 17.0625H18.6875V15.1875H19.3125V17.0625ZM21.1875 13.625C21.1875 13.4528 21.3275 13.3125 21.5 13.3125H21.8809L21.8978 13.3791C22.0719 14.0759 22.695 14.5625 23.4134 14.5625H23.6875V15.1875H21.5C21.3275 15.1875 21.1875 15.0472 21.1875 14.875V13.625Z" fill="#1580EB"/>
<rect x="4.5" y="4.5" width="29" height="26" rx="4.5" stroke="#1580EB"/>
</svg>
