<svg width="26" height="26" viewBox="0 0 26 26" fill="none" xmlns="http://www.w3.org/2000/svg">
<path fill-rule="evenodd" clip-rule="evenodd" d="M25.74 7.76426C25.74 7.76426 25.4857 5.9599 24.7065 5.16548C23.7177 4.12223 22.6094 4.11736 22.1016 4.05683C18.4632 3.79175 13.0057 3.79175 13.0057 3.79175H12.9943C12.9943 3.79175 7.53675 3.79175 3.89837 4.05683C3.38975 4.11736 2.28231 4.12223 1.29269 5.16548C0.5135 5.96011 0.26 7.76426 0.26 7.76426C0.26 7.76426 0 9.88367 0 12.0021V13.9888C0 16.108 0.26 18.2266 0.26 18.2266C0.26 18.2266 0.5135 20.031 1.29269 20.8254C2.28231 21.8687 3.5815 21.836 4.16 21.9448C6.24 22.1461 13 22.2083 13 22.2083C13 22.2083 18.4632 22.2002 22.1016 21.9351C22.6094 21.8737 23.7177 21.8689 24.7065 20.8256C25.4857 20.031 25.74 18.2268 25.74 18.2268C25.74 18.2268 26 16.1082 26 13.9888V12.0021C26 9.88367 25.74 7.76426 25.74 7.76426ZM10.3155 16.3963L10.3147 9.03928L17.3396 12.7305L10.3155 16.3963Z" fill="white" fill-opacity="0.61"/>
</svg>
